<svg width="817" height="120" viewBox="0 0 817 120" fill="none" xmlns="http://www.w3.org/2000/svg">
<path d="M83.5 88.8L37.5 69.3V54.3L83.5 34.8V47.8L43.6 64.6V59L83.5 75.8V88.8ZM679.473 102L709.073 16H723.873L694.273 102H679.473ZM733.52 88.8V75.8L773.42 59V64.6L733.52 47.8V34.8L779.52 54.3V69.3L733.52 88.8Z" fill="#0D92F8"/>
<path d="M97.6805 91V20H124.58C129.58 20 133.88 20.8667 137.48 22.6C141.08 24.3333 143.847 26.8333 145.78 30.1C147.78 33.3 148.78 37.1 148.78 41.5C148.78 44.7 148.014 47.5667 146.48 50.1C145.014 52.5667 143.114 54.5333 140.78 56C138.447 57.4667 136.014 58.2667 133.48 58.4L132.88 57.5C137.214 57.5 140.614 58.5 143.08 60.5C145.614 62.5 147.08 65.7 147.48 70.1L149.48 91H140.78L138.98 71C138.714 68.0667 137.647 65.9 135.78 64.5C133.98 63.1 131.014 62.4 126.88 62.4H106.28V91H97.6805ZM106.28 54H125.68C130.014 54 133.447 52.9 135.98 50.7C138.514 48.5 139.78 45.3667 139.78 41.3C139.78 37.1667 138.48 34 135.88 31.8C133.28 29.5333 129.514 28.4 124.58 28.4H106.28V54ZM163.668 91V38H172.068V91H163.668ZM163.468 29.7V19.9H172.268V29.7H163.468ZM207.805 92.2C202.872 92.2 198.572 91.0667 194.905 88.8C191.305 86.5333 188.505 83.3333 186.505 79.2C184.505 75 183.505 70.1 183.505 64.5C183.505 58.9 184.505 54.0333 186.505 49.9C188.505 45.7667 191.305 42.5667 194.905 40.3C198.572 37.9667 202.872 36.8 207.805 36.8C211.872 36.8 215.472 37.5333 218.605 39C221.805 40.4 224.405 42.4667 226.405 45.2C228.405 47.9333 229.705 51.2667 230.305 55.2L221.505 55.8C220.905 52.2667 219.372 49.5667 216.905 47.7C214.439 45.7667 211.405 44.8 207.805 44.8C202.939 44.8 199.139 46.5667 196.405 50.1C193.672 53.5667 192.305 58.3667 192.305 64.5C192.305 70.6333 193.672 75.4667 196.405 79C199.139 82.4667 202.939 84.2 207.805 84.2C211.405 84.2 214.439 83.2 216.905 81.2C219.372 79.2 220.905 76.2 221.505 72.2L230.305 72.8C229.705 76.7333 228.405 80.1667 226.405 83.1C224.405 85.9667 221.805 88.2 218.605 89.8C215.472 91.4 211.872 92.2 207.805 92.2ZM256.386 92.2C250.919 92.2 246.553 90.9333 243.286 88.4C240.086 85.8667 238.486 82.3333 238.486 77.8C238.486 73.2667 239.819 69.7 242.486 67.1C245.153 64.5 249.386 62.6667 255.186 61.6L273.986 58.1C273.986 53.6333 272.919 50.3 270.786 48.1C268.719 45.9 265.586 44.8 261.386 44.8C257.719 44.8 254.819 45.6333 252.686 47.3C250.553 48.9 249.086 51.2333 248.286 54.3L239.386 53.6C240.386 48.6 242.786 44.5667 246.586 41.5C250.453 38.3667 255.386 36.8 261.386 36.8C268.186 36.8 273.386 38.7333 276.986 42.6C280.586 46.4 282.386 51.6667 282.386 58.4V80.3C282.386 81.5 282.586 82.3667 282.986 82.9C283.453 83.3667 284.186 83.6 285.186 83.6H287.286V91C287.019 91.0667 286.586 91.1 285.986 91.1C285.386 91.1667 284.753 91.2 284.086 91.2C281.686 91.2 279.719 90.8333 278.186 90.1C276.719 89.3 275.653 88.1 274.986 86.5C274.319 84.8333 273.986 82.6667 273.986 80L274.986 80.2C274.519 82.4667 273.386 84.5333 271.586 86.4C269.786 88.2 267.553 89.6333 264.886 90.7C262.219 91.7 259.386 92.2 256.386 92.2ZM257.186 84.8C260.719 84.8 263.719 84.1333 266.186 82.8C268.719 81.4 270.653 79.5333 271.986 77.2C273.319 74.8 273.986 72.1333 273.986 69.2V65.4L256.786 68.6C253.186 69.2667 250.686 70.3 249.286 71.7C247.953 73.0333 247.286 74.8 247.286 77C247.286 79.4667 248.153 81.4 249.886 82.8C251.686 84.1333 254.119 84.8 257.186 84.8ZM296.773 91V38H304.173L304.573 51.4L303.773 51.1C304.44 46.5667 305.873 43.2667 308.073 41.2C310.34 39.0667 313.34 38 317.073 38H322.273V46H317.173C314.507 46 312.273 46.5 310.473 47.5C308.74 48.4333 307.407 49.8667 306.473 51.8C305.607 53.6667 305.173 56.0667 305.173 59V91H296.773ZM349.46 92.2C344.86 92.2 340.86 91.0667 337.46 88.8C334.127 86.5333 331.56 83.3333 329.76 79.2C327.96 75.0667 327.06 70.1667 327.06 64.5C327.06 58.8333 327.96 53.9333 329.76 49.8C331.56 45.6667 334.127 42.4667 337.46 40.2C340.86 37.9333 344.86 36.8 349.46 36.8C352.993 36.8 356.227 37.5667 359.16 39.1C362.093 40.5667 364.293 42.6667 365.76 45.4V20H374.16V91H366.56L366.26 83C364.793 85.8667 362.56 88.1333 359.56 89.8C356.56 91.4 353.193 92.2 349.46 92.2ZM351.16 84.2C354.293 84.2 356.927 83.4 359.06 81.8C361.26 80.2 362.927 77.9333 364.06 75C365.193 72 365.76 68.5 365.76 64.5C365.76 60.3667 365.193 56.8333 364.06 53.9C362.927 50.9667 361.26 48.7333 359.06 47.2C356.927 45.6 354.293 44.8 351.16 44.8C346.493 44.8 342.76 46.5667 339.96 50.1C337.227 53.5667 335.86 58.3667 335.86 64.5C335.86 70.5667 337.227 75.3667 339.96 78.9C342.76 82.4333 346.493 84.2 351.16 84.2ZM409.856 92.2C404.99 92.2 400.723 91.0667 397.056 88.8C393.39 86.5333 390.556 83.3333 388.556 79.2C386.556 75 385.556 70.1 385.556 64.5C385.556 58.8333 386.556 53.9333 388.556 49.8C390.556 45.6667 393.39 42.4667 397.056 40.2C400.723 37.9333 404.99 36.8 409.856 36.8C414.723 36.8 418.956 37.9333 422.556 40.2C426.223 42.4667 429.056 45.6667 431.056 49.8C433.056 53.9333 434.056 58.8333 434.056 64.5C434.056 70.1 433.056 75 431.056 79.2C429.056 83.3333 426.223 86.5333 422.556 88.8C418.956 91.0667 414.723 92.2 409.856 92.2ZM409.856 84.2C414.723 84.2 418.49 82.4667 421.156 79C423.89 75.4667 425.256 70.6333 425.256 64.5C425.256 58.3667 423.89 53.5667 421.156 50.1C418.49 46.5667 414.723 44.8 409.856 44.8C404.99 44.8 401.19 46.5667 398.456 50.1C395.723 53.5667 394.356 58.3667 394.356 64.5C394.356 70.6333 395.723 75.4667 398.456 79C401.19 82.4667 404.99 84.2 409.856 84.2ZM446.704 91V20H473.604C478.604 20 482.904 20.8667 486.504 22.6C490.104 24.3333 492.871 26.8333 494.804 30.1C496.804 33.3 497.804 37.1 497.804 41.5C497.804 44.7 497.037 47.5667 495.504 50.1C494.037 52.5667 492.137 54.5333 489.804 56C487.471 57.4667 485.037 58.2667 482.504 58.4L481.904 57.5C486.237 57.5 489.637 58.5 492.104 60.5C494.637 62.5 496.104 65.7 496.504 70.1L498.504 91H489.804L488.004 71C487.737 68.0667 486.671 65.9 484.804 64.5C483.004 63.1 480.037 62.4 475.904 62.4H455.304V91H446.704ZM455.304 54H474.704C479.037 54 482.471 52.9 485.004 50.7C487.537 48.5 488.804 45.3667 488.804 41.3C488.804 37.1667 487.504 34 484.904 31.8C482.304 29.5333 478.537 28.4 473.604 28.4H455.304V54ZM526.601 92.2C521.134 92.2 516.767 90.9333 513.501 88.4C510.301 85.8667 508.701 82.3333 508.701 77.8C508.701 73.2667 510.034 69.7 512.701 67.1C515.367 64.5 519.601 62.6667 525.401 61.6L544.201 58.1C544.201 53.6333 543.134 50.3 541.001 48.1C538.934 45.9 535.801 44.8 531.601 44.8C527.934 44.8 525.034 45.6333 522.901 47.3C520.767 48.9 519.301 51.2333 518.501 54.3L509.601 53.6C510.601 48.6 513.001 44.5667 516.801 41.5C520.667 38.3667 525.601 36.8 531.601 36.8C538.401 36.8 543.601 38.7333 547.201 42.6C550.801 46.4 552.601 51.6667 552.601 58.4V80.3C552.601 81.5 552.801 82.3667 553.201 82.9C553.667 83.3667 554.401 83.6 555.401 83.6H557.501V91C557.234 91.0667 556.801 91.1 556.201 91.1C555.601 91.1667 554.967 91.2 554.301 91.2C551.901 91.2 549.934 90.8333 548.401 90.1C546.934 89.3 545.867 88.1 545.201 86.5C544.534 84.8333 544.201 82.6667 544.201 80L545.201 80.2C544.734 82.4667 543.601 84.5333 541.801 86.4C540.001 88.2 537.767 89.6333 535.101 90.7C532.434 91.7 529.601 92.2 526.601 92.2ZM527.401 84.8C530.934 84.8 533.934 84.1333 536.401 82.8C538.934 81.4 540.867 79.5333 542.201 77.2C543.534 74.8 544.201 72.1333 544.201 69.2V65.4L527.001 68.6C523.401 69.2667 520.901 70.3 519.501 71.7C518.167 73.0333 517.501 74.8 517.501 77C517.501 79.4667 518.367 81.4 520.101 82.8C521.901 84.1333 524.334 84.8 527.401 84.8ZM583.752 91C578.952 91 575.385 89.9 573.052 87.7C570.785 85.5 569.652 82.0667 569.652 77.4V25.6H578.052V77.2C578.052 79.6 578.585 81.2667 579.652 82.2C580.718 83.1333 582.352 83.6 584.552 83.6H592.152V91H583.752ZM561.852 45.4V38H592.152V45.4H561.852ZM622.649 92.2C617.783 92.2 613.516 91.0667 609.849 88.8C606.183 86.5333 603.349 83.3333 601.349 79.2C599.349 75 598.349 70.1 598.349 64.5C598.349 58.8333 599.349 53.9333 601.349 49.8C603.349 45.6667 606.183 42.4667 609.849 40.2C613.516 37.9333 617.783 36.8 622.649 36.8C627.516 36.8 631.749 37.9333 635.349 40.2C639.016 42.4667 641.849 45.6667 643.849 49.8C645.849 53.9333 646.849 58.8333 646.849 64.5C646.849 70.1 645.849 75 643.849 79.2C641.849 83.3333 639.016 86.5333 635.349 88.8C631.749 91.0667 627.516 92.2 622.649 92.2ZM622.649 84.2C627.516 84.2 631.283 82.4667 633.949 79C636.683 75.4667 638.049 70.6333 638.049 64.5C638.049 58.3667 636.683 53.5667 633.949 50.1C631.283 46.5667 627.516 44.8 622.649 44.8C617.783 44.8 613.983 46.5667 611.249 50.1C608.516 53.5667 607.149 58.3667 607.149 64.5C607.149 70.6333 608.516 75.4667 611.249 79C613.983 82.4667 617.783 84.2 622.649 84.2Z" fill="white"/>
</svg>
