<svg width="1031" height="196" viewBox="0 0 1031 196" fill="none" xmlns="http://www.w3.org/2000/svg">
<path d="M105.639 162.9L14.4391 122.3V101.1L105.639 60.5V77.7L26.8391 112.9V110.5L105.639 145.7V162.9Z" fill="#0D92F8"/>
<path d="M134.915 134.5V61.5H157.515C161.848 61.5 165.648 62.4 168.915 64.2C172.182 65.9333 174.715 68.3667 176.515 71.5C178.315 74.6333 179.215 78.3 179.215 82.5C179.215 87.4333 177.915 91.6667 175.315 95.2C172.782 98.7333 169.315 101.167 164.915 102.5L180.215 134.5H169.615L155.615 103.5H143.915V134.5H134.915ZM143.915 95.4H157.515C161.248 95.4 164.248 94.2333 166.515 91.9C168.782 89.5 169.915 86.3667 169.915 82.5C169.915 78.5667 168.782 75.4333 166.515 73.1C164.248 70.7667 161.248 69.6 157.515 69.6H143.915V95.4ZM194.176 134.5V126.3H213.676V87.7H196.676V79.5H222.676V126.3H241.176V134.5H194.176ZM217.176 69.6C214.976 69.6 213.242 69.0333 211.976 67.9C210.709 66.7667 210.076 65.2333 210.076 63.3C210.076 61.3 210.709 59.7333 211.976 58.6C213.242 57.4 214.976 56.8 217.176 56.8C219.376 56.8 221.109 57.4 222.376 58.6C223.642 59.7333 224.276 61.3 224.276 63.3C224.276 65.2333 223.642 66.7667 222.376 67.9C221.109 69.0333 219.376 69.6 217.176 69.6ZM276.037 135.5C271.637 135.5 267.77 134.667 264.437 133C261.17 131.333 258.637 128.933 256.837 125.8C255.037 122.6 254.137 118.833 254.137 114.5V99.5C254.137 95.1 255.037 91.3333 256.837 88.2C258.637 85.0667 261.17 82.6667 264.437 81C267.77 79.3333 271.637 78.5 276.037 78.5C282.37 78.5 287.47 80.2 291.337 83.6C295.203 87 297.237 91.6333 297.437 97.5H288.437C288.237 93.9667 287.037 91.2667 284.837 89.4C282.703 87.4667 279.77 86.5 276.037 86.5C272.103 86.5 268.97 87.6333 266.637 89.9C264.303 92.1 263.137 95.2667 263.137 99.4V114.5C263.137 118.633 264.303 121.833 266.637 124.1C268.97 126.367 272.103 127.5 276.037 127.5C279.77 127.5 282.703 126.533 284.837 124.6C287.037 122.667 288.237 119.967 288.437 116.5H297.437C297.237 122.367 295.203 127 291.337 130.4C287.47 133.8 282.37 135.5 276.037 135.5ZM330.798 135.5C324.998 135.5 320.431 134.033 317.098 131.1C313.764 128.1 312.098 124.067 312.098 119C312.098 113.867 313.764 109.833 317.098 106.9C320.431 103.967 324.931 102.5 330.598 102.5H347.598V97C347.598 93.6 346.564 91 344.498 89.2C342.498 87.3333 339.631 86.4 335.898 86.4C332.631 86.4 329.898 87.1 327.698 88.5C325.498 89.8333 324.231 91.6667 323.898 94H314.898C315.498 89.2667 317.731 85.5 321.598 82.7C325.464 79.9 330.298 78.5 336.098 78.5C342.431 78.5 347.431 80.1333 351.098 83.4C354.764 86.6667 356.598 91.1 356.598 96.7V134.5H347.798V124H346.298L347.798 122.5C347.798 126.5 346.231 129.667 343.098 132C340.031 134.333 335.931 135.5 330.798 135.5ZM332.998 128.4C337.264 128.4 340.764 127.333 343.498 125.2C346.231 123.067 347.598 120.333 347.598 117V109.2H330.798C327.798 109.2 325.431 110.033 323.698 111.7C321.964 113.367 321.098 115.633 321.098 118.5C321.098 121.567 322.131 124 324.198 125.8C326.331 127.533 329.264 128.4 332.998 128.4ZM376.659 134.5V79.5H385.459V90H387.559L384.659 96.5C384.659 90.5667 385.925 86.1 388.459 83.1C391.059 80.0333 394.892 78.5 399.959 78.5C405.759 78.5 410.359 80.3333 413.759 84C417.225 87.6 418.959 92.5 418.959 98.7V102H409.959V99.5C409.959 95.1667 408.892 91.8667 406.759 89.6C404.692 87.2667 401.725 86.1 397.859 86.1C394.059 86.1 391.059 87.2667 388.859 89.6C386.725 91.9333 385.659 95.2333 385.659 99.5V134.5H376.659ZM452.32 135.5C446.853 135.5 442.42 133.667 439.02 130C435.686 126.333 434.02 121.367 434.02 115.1V99C434.02 92.6667 435.686 87.6667 439.02 84C442.353 80.3333 446.786 78.5 452.32 78.5C456.853 78.5 460.486 79.7333 463.22 82.2C465.953 84.6667 467.32 87.9667 467.32 92.1L465.52 90H467.52L467.32 77.5V61.5H476.32V134.5H467.32V124H465.52L467.32 121.9C467.32 126.1 465.953 129.433 463.22 131.9C460.486 134.3 456.853 135.5 452.32 135.5ZM455.32 127.7C459.053 127.7 461.986 126.533 464.12 124.2C466.253 121.867 467.32 118.633 467.32 114.5V99.5C467.32 95.3667 466.253 92.1333 464.12 89.8C461.986 87.4667 459.053 86.3 455.32 86.3C451.52 86.3 448.52 87.4333 446.32 89.7C444.12 91.9667 443.02 95.2333 443.02 99.5V114.5C443.02 118.767 444.12 122.033 446.32 124.3C448.52 126.567 451.52 127.7 455.32 127.7ZM515.48 135.3C511.08 135.3 507.28 134.467 504.08 132.8C500.88 131.133 498.38 128.733 496.58 125.6C494.847 122.4 493.98 118.633 493.98 114.3V99.7C493.98 95.3 494.847 91.5333 496.58 88.4C498.38 85.2667 500.88 82.8667 504.08 81.2C507.28 79.5333 511.08 78.7 515.48 78.7C519.88 78.7 523.68 79.5333 526.88 81.2C530.08 82.8667 532.547 85.2667 534.28 88.4C536.08 91.5333 536.98 95.2667 536.98 99.6V114.3C536.98 118.633 536.08 122.4 534.28 125.6C532.547 128.733 530.08 131.133 526.88 132.8C523.68 134.467 519.88 135.3 515.48 135.3ZM515.48 127.3C519.414 127.3 522.48 126.2 524.68 124C526.88 121.8 527.98 118.567 527.98 114.3V99.7C527.98 95.4333 526.88 92.2 524.68 90C522.48 87.8 519.414 86.7 515.48 86.7C511.614 86.7 508.547 87.8 506.28 90C504.08 92.2 502.98 95.4333 502.98 99.7V114.3C502.98 118.567 504.08 121.8 506.28 124C508.547 126.2 511.614 127.3 515.48 127.3ZM554.641 134.5V61.5H577.241C581.575 61.5 585.375 62.4 588.641 64.2C591.908 65.9333 594.441 68.3667 596.241 71.5C598.041 74.6333 598.941 78.3 598.941 82.5C598.941 87.4333 597.641 91.6667 595.041 95.2C592.508 98.7333 589.041 101.167 584.641 102.5L599.941 134.5H589.341L575.341 103.5H563.641V134.5H554.641ZM563.641 95.4H577.241C580.975 95.4 583.975 94.2333 586.241 91.9C588.508 89.5 589.641 86.3667 589.641 82.5C589.641 78.5667 588.508 75.4333 586.241 73.1C583.975 70.7667 580.975 69.6 577.241 69.6H563.641V95.4ZM630.602 135.5C624.802 135.5 620.236 134.033 616.902 131.1C613.569 128.1 611.902 124.067 611.902 119C611.902 113.867 613.569 109.833 616.902 106.9C620.236 103.967 624.736 102.5 630.402 102.5H647.402V97C647.402 93.6 646.369 91 644.302 89.2C642.302 87.3333 639.436 86.4 635.702 86.4C632.436 86.4 629.702 87.1 627.502 88.5C625.302 89.8333 624.036 91.6667 623.702 94H614.702C615.302 89.2667 617.536 85.5 621.402 82.7C625.269 79.9 630.102 78.5 635.902 78.5C642.236 78.5 647.236 80.1333 650.902 83.4C654.569 86.6667 656.402 91.1 656.402 96.7V134.5H647.602V124H646.102L647.602 122.5C647.602 126.5 646.036 129.667 642.902 132C639.836 134.333 635.736 135.5 630.602 135.5ZM632.802 128.4C637.069 128.4 640.569 127.333 643.302 125.2C646.036 123.067 647.402 120.333 647.402 117V109.2H630.602C627.602 109.2 625.236 110.033 623.502 111.7C621.769 113.367 620.902 115.633 620.902 118.5C620.902 121.567 621.936 124 624.002 125.8C626.136 127.533 629.069 128.4 632.802 128.4ZM701.363 134.5C696.63 134.5 692.93 133.233 690.263 130.7C687.663 128.167 686.363 124.6 686.363 120V87.7H670.863V79.5H686.363V64H695.363V79.5H717.363V87.7H695.363V120C695.363 124.2 697.363 126.3 701.363 126.3H716.363V134.5H701.363ZM755.324 135.3C750.924 135.3 747.124 134.467 743.924 132.8C740.724 131.133 738.224 128.733 736.424 125.6C734.691 122.4 733.824 118.633 733.824 114.3V99.7C733.824 95.3 734.691 91.5333 736.424 88.4C738.224 85.2667 740.724 82.8667 743.924 81.2C747.124 79.5333 750.924 78.7 755.324 78.7C759.724 78.7 763.524 79.5333 766.724 81.2C769.924 82.8667 772.391 85.2667 774.124 88.4C775.924 91.5333 776.824 95.2667 776.824 99.6V114.3C776.824 118.633 775.924 122.4 774.124 125.6C772.391 128.733 769.924 131.133 766.724 132.8C763.524 134.467 759.724 135.3 755.324 135.3ZM755.324 127.3C759.258 127.3 762.324 126.2 764.524 124C766.724 121.8 767.824 118.567 767.824 114.3V99.7C767.824 95.4333 766.724 92.2 764.524 90C762.324 87.8 759.258 86.7 755.324 86.7C751.458 86.7 748.391 87.8 746.124 90C743.924 92.2 742.824 95.4333 742.824 99.7V114.3C742.824 118.567 743.924 121.8 746.124 124C748.391 126.2 751.458 127.3 755.324 127.3Z" fill="white"/>
<path d="M812.678 191L873.478 19H889.478L828.678 191H812.678ZM925.4 162.4V145.2L1004.2 110V112.4L925.4 77.2V60L1016.6 100.6V121.8L925.4 162.4Z" fill="#0D92F8"/>
</svg>
